# xmcd
#
# Track frame offsets:
#	150
#	10750
#	22325
#	33147
#	45985
#	56307
#	65625
#	77735
#	87982
#	98690
#	110397
#	120527
#	133262
#	145820
#	155910
#	167305
#	177355
#	187765
#	198402
#	210657
#	222507
#	234442
#	244667
#	255342
#	264702
#
# Disc length: 3689 seconds
#
# Revision: 1
# Processed by: cddbd v1.4PL0 Copyright (c) Steve Scherf et al.
# Submitted via: audiograbber 1.80
#
DISCID=530e6719
DTITLE=johnny horton - the early years disc 4
DYEAR=1900
DGENRE=
TTITLE0=plaid and calico 1959
TTITLE1=coal smoke, valve oil and steam 1959
TTITLE2=devilish love light 1959
TTITLE3=done rovin' 1959
TTITLE4=mean, mean son of a gun 1959
TTITLE5=talk gobbler talk (old gobbler, the hound dog) 1959
TTITLE6=shadows on the old bayou 1959
TTITLE7=in my home in shelby county 1959
TTITLE8=go and wash your dirty feet (barefoot boy blues) 1959
TTITLE9=smokey joe's barbecue 1959
TTITLE10=it's a long rocky road 1959
TTITLE11=words 1959
TTITLE12=done rovin' 1964
TTITLE13=it's a long rocky road 1964
TTITLE14=smokey joe's barbecue 1964
TTITLE15=mean, mean son of a gun 1964
TTITLE16=devilish love light 1964
TTITLE17=coal smoke, valve oil and steam 1964
TTITLE18=words 1964
TTITLE19=shadows on the old bayou 1964
TTITLE20=on the banks of the beautiful nile 1964
TTITLE21=in my home in shelby county 1964
TTITLE22=go and wash your dirty feet (barefoot boy blues) 1964
TTITLE23=talk gobbler talk (old gobbler, the hound dog) 1964
TTITLE24=ballad of johnny horton (rudy thacker) 1961
EXTD=
EXTT0=
EXTT1=
EXTT2=
EXTT3=
EXTT4=
EXTT5=
EXTT6=
EXTT7=
EXTT8=
EXTT9=
EXTT10=
EXTT11=
EXTT12=
EXTT13=
EXTT14=
EXTT15=
EXTT16=
EXTT17=
EXTT18=
EXTT19=
EXTT20=
EXTT21=
EXTT22=
EXTT23=
EXTT24=
PLAYORDER=
